<?xml version="1.0" encoding="UTF-8"?>
<svg width="24px" height="24px" viewBox="0 0 24 24" version="1.1" xmlns="http://www.w3.org/2000/svg" xmlns:xlink="http://www.w3.org/1999/xlink">
    <!-- Generator: sketchtool 46.1 (44463) - http://www.bohemiancoding.com/sketch -->
    <title>ADFCD5E3-7994-47BD-9155-3290C8FB12C7</title>
    <desc>Created with sketchtool.</desc>
    <defs></defs>
    <g id="Symbols" stroke="none" stroke-width="1" fill="none" fill-rule="evenodd">
        <g id="ic-/-ic_export">
            <g id="ic-/-export">
                <polygon id="Shape" points="0 0 24 0 24 24 0 24"></polygon>
                <g id="Page-1" transform="translate(5.000000, 4.000000)" fill="#1A1A1A">
                    <path d="M14,14 L14,15 C14,16.1045695 13.1045695,17 12,17 L2,17 C0.8954305,17 1.11022302e-16,16.1045695 0,15 L0,14 L1,14 L1,15 C1,15.5522847 1.44771525,16 2,16 L12,16 C12.5522847,16 13,15.5522847 13,15 L13,14 L14,14 Z" id="Combined-Shape" fill-rule="nonzero"></path>
                    <path d="M10.5770667,3.303825 L7.37706667,0.153825 C7.16906667,-0.050925 6.82986667,-0.050925 6.62293333,0.153825 L3.42293333,3.303825 C3.21493333,3.507525 3.21493333,3.841425 3.42293333,4.046175 C3.62986667,4.249875 3.96906667,4.249875 4.17706667,4.046175 L6.46613333,1.792875 L6.46613333,13.650525 C6.46613333,13.940325 6.70613333,14.175525 6.99946667,14.175525 C7.29386667,14.175525 7.5328,13.940325 7.5328,13.650525 L7.5328,1.792875 L9.82293333,4.046175 C9.92853333,4.149075 10.0650667,4.199475 10.1994667,4.199475 C10.3349333,4.199475 10.4725333,4.148025 10.5770667,4.046175 C10.784,3.841425 10.784,3.507525 10.5770667,3.303825" id="Fill-3" transform="translate(6.999600, 7.087894) rotate(-180.000000) translate(-6.999600, -7.087894) "></path>
                </g>
            </g>
        </g>
    </g>
</svg>