<?xml version="1.0" encoding="UTF-8"?>
<svg width="24px" height="24px" viewBox="0 0 24 24" version="1.1" xmlns="http://www.w3.org/2000/svg" xmlns:xlink="http://www.w3.org/1999/xlink">
    <!-- Generator: Sketch 49.3 (51167) - http://www.bohemiancoding.com/sketch -->
    <title>ikonica-name</title>
    <desc>Created with Sketch.</desc>
    <defs></defs>
    <g id="ikonica-name" stroke="none" stroke-width="1" fill="none" fill-rule="evenodd">
        <rect id="Bounds" fill-opacity="0.2" fill="#FF0000" opacity="0" x="0" y="0" width="24" height="24"></rect>
        <g id="0006-home6" transform="translate(2.000000, 2.000000)" fill="#000000" fill-rule="nonzero">
            <path d="M14.5,20 L11.5,20 C11.224,20 11,19.776 11,19.5 L11,16 L9,16 L9,19.5 C9,19.776 8.776,20 8.5,20 L5.5,20 C4.673,20 4,19.327 4,18.5 L4,12.377 L2.871,13.625 C2.686,13.829 2.372,13.846 2.167,13.662 L0.167,11.873 C0.068,11.784 0.008,11.66 0.001,11.527 C-0.006,11.394 0.04,11.264 0.13,11.165 L8.959,1.407 C9.233,1.104 9.603,0.937 10.001,0.937 C10.399,0.937 10.768,1.104 11.043,1.407 L19.872,11.165 C19.961,11.264 20.008,11.394 20.001,11.527 C19.994,11.66 19.934,11.785 19.835,11.873 L17.835,13.662 C17.63,13.845 17.315,13.829 17.131,13.625 L16.002,12.377 L16.002,18.5 C16.002,19.327 15.329,20 14.502,20 L14.5,20 Z M12,19 L14.5,19 C14.776,19 15,18.776 15,18.5 L15,11.079 C15,10.872 15.127,10.687 15.32,10.612 C15.513,10.537 15.732,10.59 15.871,10.743 L17.537,12.585 L18.792,11.462 L10.3,2.076 C10.218,1.985 10.111,1.935 10,1.935 C9.889,1.935 9.782,1.985 9.7,2.076 L1.208,11.462 L2.463,12.585 L4.129,10.743 C4.268,10.59 4.487,10.538 4.68,10.612 C4.873,10.686 5,10.872 5,11.079 L5,18.5 C5,18.776 5.224,19 5.5,19 L8,19 L8,15.5 C8,15.224 8.224,15 8.5,15 L11.5,15 C11.776,15 12,15.224 12,15.5 L12,19 Z" id="Shape"></path>
        </g>
    </g>
</svg>